<svg id="Capa_1" data-name="Capa 1" xmlns="http://www.w3.org/2000/svg" viewBox="0 0 34.27 11.58"><title>giftphy</title><path d="M19.81,32.58v-.35h3.37v3.25a4.36,4.36,0,0,1-2.37.66h-.14a4.29,4.29,0,0,1-2.3-.65,4.8,4.8,0,0,1-1.69-1.72,4.66,4.66,0,0,1,4.07-6.94,4.74,4.74,0,0,1,2.43.67V28a4.29,4.29,0,0,0-5.46,6.57,4.1,4.1,0,0,0,3,1.27,4.7,4.7,0,0,0,2-.5V32.58Z" transform="translate(-16.07 -26.83)"/><path d="M24.91,29.3c-.23,0-.35-.11-.35-.32s.12-.33.35-.33.35.11.35.33S25.14,29.3,24.91,29.3Zm.19,1.32V36h-.38V30.62Z" transform="translate(-16.07 -26.83)"/><path d="M31.65,31v-.34H30V28.44H29.6v2.17H27.07v-.16a1.65,1.65,0,0,1,.48-1.21,1.57,1.57,0,0,1,1.16-.48v-.33a2,2,0,0,0-1.42.57,1.9,1.9,0,0,0-.59,1.45V36h.37V31H29.6v3.1a1.92,1.92,0,0,0,.6,1.46,2,2,0,0,0,1.45.57v-.33a1.63,1.63,0,0,1-1.18-.48A1.66,1.66,0,0,1,30,34.05V31Z" transform="translate(-16.07 -26.83)"/><path d="M32.61,38.41v-7.8H33v1.32a2.45,2.45,0,0,1,1-1.06,2.89,2.89,0,0,1,1.44-.39,2.78,2.78,0,0,1,2,.83,2.82,2.82,0,0,1,0,4,2.78,2.78,0,0,1-2,.83A2.83,2.83,0,0,1,34,35.75a2.69,2.69,0,0,1-1-1v3.71ZM33,33.32a2.53,2.53,0,0,0,2.49,2.49,2.35,2.35,0,0,0,1.74-.74,2.49,2.49,0,0,0,0-3.51,2.32,2.32,0,0,0-1.73-.75,2.38,2.38,0,0,0-1.75.75A2.44,2.44,0,0,0,33,33.32Z" transform="translate(-16.07 -26.83)"/><path d="M39.83,36h-.39V27h.39v4.63a2.13,2.13,0,0,1,2.07-1.17,2.36,2.36,0,0,1,2.39,2.39V36h-.38V32.87a2,2,0,0,0-.59-1.45,1.93,1.93,0,0,0-1.42-.61,2,2,0,0,0-1.45.62,1.91,1.91,0,0,0-.62,1.44Z" transform="translate(-16.07 -26.83)"/><path d="M50,30.61h.39v5.23a2.58,2.58,0,0,1-4.62,1.56l0-.6a2.68,2.68,0,0,0,.88.92,2.15,2.15,0,0,0,2.69-.3A2.09,2.09,0,0,0,50,35.88V35a2.09,2.09,0,0,1-2.05,1.17,2.41,2.41,0,0,1-2.41-2.39V30.61h.38v3.14a2,2,0,0,0,.61,1.44,1.94,1.94,0,0,0,1.43.62,2.08,2.08,0,0,0,2-2.06Z" transform="translate(-16.07 -26.83)"/></svg>